<svg width="136" height="32" viewBox="0 0 136 32" fill="none" xmlns="http://www.w3.org/2000/svg">
<path d="M44.5046 3.95955C44.5046 4.91093 44.2128 5.6729 43.6381 6.24116C42.9773 6.91482 42.1166 7.25379 41.0619 7.25379C40.0539 7.25379 39.1933 6.90912 38.4873 6.22977C37.7798 5.54044 37.4268 4.69445 37.4268 3.68183C37.4268 2.6692 37.7798 1.82321 38.4873 1.13958C39.1933 0.454527 40.0539 0.109863 41.0619 0.109863C41.5637 0.109863 42.0422 0.210984 42.4988 0.398982C42.9539 0.588404 43.3244 0.844764 43.5928 1.16094L42.9831 1.76197C42.5148 1.22219 41.8774 0.955855 41.0619 0.955855C40.3267 0.955855 39.6893 1.20652 39.1481 1.71212C38.6127 2.21914 38.3443 2.87571 38.3443 3.68183C38.3443 4.48794 38.6127 5.1502 39.1481 5.65723C39.6893 6.15713 40.3267 6.41349 41.0619 6.41349C41.8424 6.41349 42.4988 6.15713 43.0166 5.65153C43.358 5.31684 43.552 4.85539 43.6031 4.26576H41.0619V3.44256H44.452C44.4929 3.62058 44.5046 3.79291 44.5046 3.95955Z" fill="white"/>
<path d="M49.8829 1.10539H46.6985V3.27022H49.5693V4.09342H46.6985V6.25824H49.8829V7.09712H45.797V0.266522H49.8829V1.10539Z" fill="white"/>
<path d="M53.6785 7.09712H52.777V1.10539H50.8238V0.266522H55.6332V1.10539H53.6785V7.09712Z" fill="white"/>
<path d="M59.1138 7.09712V0.266522H60.0138V7.09712H59.1138Z" fill="white"/>
<path d="M64.0035 7.09712H63.1093V1.10539H61.1487V0.266522H65.964V1.10539H64.0035V7.09712Z" fill="white"/>
<path d="M75.0695 6.21837C74.3795 6.90913 73.5247 7.25379 72.505 7.25379C71.4795 7.25379 70.6247 6.90913 69.9347 6.21837C69.2462 5.52905 68.9034 4.68306 68.9034 3.68183C68.9034 2.68059 69.2462 1.8346 69.9347 1.14528C70.6247 0.454527 71.4795 0.109863 72.505 0.109863C73.5189 0.109863 74.3737 0.454526 75.0637 1.15097C75.758 1.846 76.1008 2.68629 76.1008 3.68183C76.1008 4.68306 75.758 5.52905 75.0695 6.21837ZM70.6014 5.64583C71.1207 6.15713 71.7523 6.41349 72.505 6.41349C73.2519 6.41349 73.8894 6.15713 74.4029 5.64583C74.9207 5.13454 75.1833 4.47797 75.1833 3.68183C75.1833 2.88568 74.9207 2.22911 74.4029 1.71782C73.8894 1.20652 73.2519 0.950158 72.505 0.950158C71.7523 0.950158 71.1207 1.20652 70.6014 1.71782C70.0835 2.22911 69.821 2.88568 69.821 3.68183C69.821 4.47797 70.0835 5.13454 70.6014 5.64583Z" fill="white"/>
<path d="M77.3655 7.09712V0.266522H78.4596L81.8614 5.57889H81.9008L81.8614 4.26575V0.266522H82.7614V7.09712H81.822L78.2597 1.52269H78.2204L78.2597 2.84152V7.09712H77.3655Z" fill="white"/>
<path d="M68.6821 17.0724C65.9411 17.0724 63.702 19.109 63.702 21.919C63.702 24.7062 65.9411 26.7642 68.6821 26.7642C71.4289 26.7642 73.6681 24.7062 73.6681 21.919C73.6681 19.109 71.4289 17.0724 68.6821 17.0724ZM68.6821 24.8558C67.1781 24.8558 65.8842 23.6437 65.8842 21.919C65.8842 20.1715 67.1781 18.9808 68.6821 18.9808C70.1861 18.9808 71.4858 20.1715 71.4858 21.919C71.4858 23.6437 70.1861 24.8558 68.6821 24.8558ZM57.816 17.0724C55.0692 17.0724 52.8358 19.109 52.8358 21.919C52.8358 24.7062 55.0692 26.7642 57.816 26.7642C60.5613 26.7642 62.7961 24.7062 62.7961 21.919C62.7961 19.109 60.5613 17.0724 57.816 17.0724ZM57.816 24.8558C56.3105 24.8558 55.0123 23.6437 55.0123 21.919C55.0123 20.1715 56.3105 18.9808 57.816 18.9808C59.3199 18.9808 60.6138 20.1715 60.6138 21.919C60.6138 23.6437 59.3199 24.8558 57.816 24.8558ZM44.8857 18.5578V20.6173H49.9227C49.7754 21.768 49.3815 22.614 48.7776 23.2037C48.0424 23.9158 46.8973 24.7062 44.8857 24.7062C41.7859 24.7062 39.3585 22.2637 39.3585 19.2372C39.3585 16.2107 41.7859 13.7681 44.8857 13.7681C46.5618 13.7681 47.7813 14.4076 48.6813 15.2365L50.1678 13.7852C48.9089 12.6117 47.2343 11.7101 44.8857 11.7101C40.6349 11.7101 37.0625 15.087 37.0625 19.2372C37.0625 23.3874 40.6349 26.7642 44.8857 26.7642C47.1832 26.7642 48.9089 26.0293 50.2655 24.6507C51.6557 23.2934 52.089 21.3849 52.089 19.8439C52.089 19.3654 52.0481 18.9253 51.9752 18.5578H44.8857ZM97.7591 20.1544C97.3492 19.0705 96.0845 17.0724 93.5084 17.0724C90.9556 17.0724 88.8302 19.0364 88.8302 21.919C88.8302 24.6336 90.9337 26.7642 93.7534 26.7642C96.0334 26.7642 97.3492 25.4069 97.8904 24.6165L96.1983 23.5156C95.6337 24.3217 94.865 24.8558 93.7534 24.8558C92.6492 24.8558 91.8571 24.3615 91.3494 23.3874L97.9881 20.7056L97.7591 20.1544ZM90.9906 21.768C90.9337 19.8994 92.477 18.9424 93.5828 18.9424C94.4492 18.9424 95.1844 19.3654 95.4295 19.9707L90.9906 21.768ZM85.5947 26.4694H87.777V12.2271H85.5947V26.4694ZM82.0208 18.1519H81.9479C81.4577 17.5851 80.5227 17.0724 79.3382 17.0724C76.8525 17.0724 74.5798 19.203 74.5798 21.9347C74.5798 24.6507 76.8525 26.7642 79.3382 26.7642C80.5227 26.7642 81.4577 26.2472 81.9479 25.6633H82.0208V26.3583C82.0208 28.2112 81.007 29.2068 79.3717 29.2068C78.0384 29.2068 77.2113 28.2668 76.87 27.4763L74.9722 28.2497C75.5192 29.5343 76.9677 31.1152 79.3717 31.1152C81.9304 31.1152 84.0893 29.6454 84.0893 26.0692V17.3672H82.0208V18.1519ZM79.5249 24.8558C78.0209 24.8558 76.762 23.6266 76.762 21.9347C76.762 20.227 78.0209 18.9808 79.5249 18.9808C81.007 18.9808 82.1754 20.227 82.1754 21.9347C82.1754 23.6266 81.007 24.8558 79.5249 24.8558ZM107.976 12.2271H102.757V26.4694H104.933V21.073H107.976C110.393 21.073 112.764 19.3654 112.764 16.6494C112.764 13.9348 110.387 12.2271 107.976 12.2271ZM108.033 19.0919H104.933V14.2082H108.033C109.658 14.2082 110.586 15.5256 110.586 16.6494C110.586 17.7517 109.658 19.0919 108.033 19.0919ZM121.487 17.0453C119.914 17.0453 118.279 17.7232 117.607 19.2258L119.538 20.0162C119.954 19.2258 120.718 18.9694 121.526 18.9694C122.655 18.9694 123.801 19.6317 123.818 20.801V20.9505C123.424 20.7283 122.581 20.3993 121.544 20.3993C119.464 20.3993 117.344 21.5174 117.344 23.6039C117.344 25.5123 119.048 26.7414 120.963 26.7414C122.428 26.7414 123.236 26.0963 123.744 25.3457H123.818V26.4466H125.92V20.9833C125.92 18.4581 123.989 17.0453 121.487 17.0453ZM121.224 24.8501C120.513 24.8501 119.521 24.5054 119.521 23.6437C119.521 22.5414 120.758 22.1184 121.828 22.1184C122.787 22.1184 123.236 22.3249 123.818 22.5969C123.647 23.9158 122.485 24.8501 121.224 24.8501ZM133.578 17.3572L131.077 23.5312H131.002L128.416 17.3572H126.069L129.955 25.9852L127.738 30.7862H130.012L136 17.3572H133.578ZM113.96 26.4694H116.142V12.2271H113.96V26.4694Z" fill="white"/>
<path d="M0.541191 0.877589C0.198387 1.22795 0 1.77343 0 2.47984V27.6773C0 28.3837 0.198387 28.9292 0.541191 29.2795L0.625798 29.3564L15.0877 15.2424V14.9091L0.625798 0.794984L0.541191 0.877589Z" fill="url(#paint0_linear_47_552)"/>
<path d="M19.9022 19.9492L15.0869 15.2421V14.9089L19.908 10.2018L20.016 10.263L25.7255 13.4348C27.3549 14.3349 27.3549 15.8161 25.7255 16.7219L20.016 19.888L19.9022 19.9492Z" fill="url(#paint1_linear_47_552)"/>
<path d="M20.0157 19.888L15.0866 15.0756L0.540039 29.2794C1.08123 29.8348 1.96377 29.9018 2.96738 29.3463L20.0157 19.888Z" fill="url(#paint2_linear_47_552)"/>
<path d="M20.0157 10.2632L2.96738 0.804926C1.96377 0.255174 1.08123 0.322111 0.540039 0.87756L15.0866 15.0757L20.0157 10.2632Z" fill="url(#paint3_linear_47_552)"/>
<defs>
<linearGradient id="paint0_linear_47_552" x1="13.8037" y1="27.9397" x2="-5.3124" y2="8.3604" gradientUnits="userSpaceOnUse">
<stop stop-color="#00A0FF"/>
<stop offset="0.0066" stop-color="#00A1FF"/>
<stop offset="0.2601" stop-color="#00BEFF"/>
<stop offset="0.5122" stop-color="#00D2FF"/>
<stop offset="0.7604" stop-color="#00DFFF"/>
<stop offset="1" stop-color="#00E3FF"/>
</linearGradient>
<linearGradient id="paint1_linear_47_552" x1="27.8473" y1="15.0739" x2="-0.390296" y2="15.0739" gradientUnits="userSpaceOnUse">
<stop stop-color="#FFE000"/>
<stop offset="0.4087" stop-color="#FFBD00"/>
<stop offset="0.7754" stop-color="#FFA500"/>
<stop offset="1" stop-color="#FF9C00"/>
</linearGradient>
<linearGradient id="paint2_linear_47_552" x1="17.3354" y1="12.4594" x2="-8.5876" y2="-14.0917" gradientUnits="userSpaceOnUse">
<stop stop-color="#FF3A44"/>
<stop offset="1" stop-color="#C31162"/>
</linearGradient>
<linearGradient id="paint3_linear_47_552" x1="-3.12163" y1="37.6626" x2="8.45414" y2="25.8064" gradientUnits="userSpaceOnUse">
<stop stop-color="#32A071"/>
<stop offset="0.0685" stop-color="#2DA771"/>
<stop offset="0.4762" stop-color="#15CF74"/>
<stop offset="0.8009" stop-color="#06E775"/>
<stop offset="1" stop-color="#00F076"/>
</linearGradient>
</defs>
</svg>
